<?xml version="1.0" standalone="no"?>
<!DOCTYPE svg PUBLIC "-//W3C//DTD SVG 20010904//EN"
 "http://www.w3.org/TR/2001/REC-SVG-20010904/DTD/svg10.dtd">
<svg version="1.0" xmlns="http://www.w3.org/2000/svg"
 width="2000.000000pt" height="2000.000000pt" viewBox="0 0 2000.000000 2000.000000"
 preserveAspectRatio="xMidYMid meet">

<g transform="translate(0.000000,2000.000000) scale(0.100000,-0.100000)"
fill="#000000" stroke="none">
<path d="M9072 13470 c-201 -72 -322 -242 -322 -449 0 -85 16 -154 49 -220 18
-34 19 -43 8 -38 -91 35 -228 40 -322 13 -66 -19 -129 -53 -188 -100 -56 -44
-130 -161 -151 -237 -28 -98 -24 -235 11 -325 3 -9 -18 -3 -63 19 -66 31 -74
32 -189 32 -102 0 -129 -4 -178 -23 -117 -48 -222 -152 -269 -270 -19 -48 -23
-75 -23 -177 0 -137 17 -193 82 -279 36 -47 127 -129 153 -138 8 -2 2 -19 -18
-49 -51 -76 -74 -145 -79 -244 -8 -128 16 -214 90 -326 l17 -26 -56 -38 c-65
-45 -121 -115 -161 -200 -26 -56 -28 -69 -28 -185 0 -123 1 -126 36 -200 88
-184 269 -292 464 -277 63 5 110 19 213 64 10 4 10 -1 2 -22 -6 -15 -15 -58
-20 -96 -35 -248 125 -491 365 -554 74 -19 184 -19 255 -1 30 8 56 13 58 12 1
-2 -10 -30 -25 -62 -26 -55 -28 -68 -28 -184 0 -123 1 -126 36 -200 84 -175
244 -280 429 -280 217 0 398 135 462 343 17 57 20 86 15 161 -2 50 -8 98 -11
107 -6 13 2 18 36 23 99 16 190 82 236 170 22 43 26 64 27 133 0 46 2 82 5 80
3 -1 26 -13 51 -26 43 -22 46 -26 58 -84 17 -82 63 -169 117 -223 43 -44 44
-46 34 -82 -5 -20 -10 -76 -10 -124 0 -148 48 -259 156 -357 203 -186 528
-155 696 66 60 80 89 158 95 259 6 92 -7 164 -44 238 -22 44 -23 48 -6 42 88
-34 261 -32 355 3 124 47 242 165 289 289 35 93 37 267 4 355 -6 15 0 14 46
-8 76 -35 152 -48 239 -42 96 7 175 37 253 95 190 145 244 421 122 622 -33 54
-114 138 -164 170 l-23 16 31 46 c55 82 74 150 75 268 1 119 -13 171 -70 265
-19 32 -33 59 -32 60 2 1 23 16 48 32 86 59 148 146 182 257 17 56 20 85 16
162 -5 83 -10 103 -42 169 -54 108 -120 176 -223 227 -76 38 -93 42 -175 46
-99 5 -180 -9 -241 -40 -22 -11 -40 -18 -42 -16 -2 2 3 28 11 58 46 177 -15
377 -152 499 -127 113 -335 158 -486 105 -21 -7 -38 -11 -38 -8 0 2 11 26 24
52 102 203 28 466 -167 595 -90 60 -165 80 -288 75 -99 -3 -110 -6 -183 -41
-101 -51 -172 -122 -223 -223 l-38 -78 1 -125 c1 -70 3 -137 5 -151 4 -22 1
-25 -26 -22 -218 18 -277 10 -393 -53 l-63 -35 -47 47 -47 48 12 45 c16 61 16
175 -1 235 -42 158 -165 289 -317 336 -83 26 -224 25 -297 -1z m238 -312 c73
-50 96 -122 65 -204 -46 -120 -219 -135 -292 -25 -46 69 -23 180 46 227 49 33
134 34 181 2z m1491 -1 c19 -12 45 -43 58 -70 34 -69 24 -127 -33 -183 -56
-57 -114 -67 -183 -33 -65 32 -93 77 -93 147 0 100 61 162 161 162 42 0 65 -6
90 -23z m-1321 -552 c35 -18 50 -43 50 -85 0 -42 -15 -67 -52 -86 -65 -34
-138 11 -138 85 0 79 70 122 140 86z m1065 0 c60 -29 72 -96 26 -147 -24 -27
-36 -33 -70 -33 -104 0 -133 146 -36 186 30 12 44 11 80 -6z m-382 -69 c39
-17 92 -71 106 -109 14 -36 14 -118 0 -154 -39 -103 -179 -153 -280 -100 -183
97 -118 375 89 377 29 0 67 -6 85 -14z m-1440 -80 c24 -12 49 -39 65 -66 14
-25 108 -180 210 -345 101 -165 187 -304 190 -309 3 -5 -1 -6 -9 -1 -8 5 -143
89 -301 187 -158 97 -302 185 -320 194 -79 40 -121 102 -121 180 0 150 152
235 286 160z m2644 19 c120 -36 170 -179 99 -285 -14 -22 -41 -47 -58 -56 -18
-9 -172 -102 -341 -206 -169 -105 -309 -189 -311 -187 -2 2 70 123 161 269 90
146 182 298 205 338 43 78 82 114 138 130 48 14 50 14 107 -3z m-1537 -251
c12 -25 21 -46 19 -48 -203 -170 -273 -269 -300 -420 -10 -61 -1 -177 15 -194
3 -2 108 -24 233 -48 125 -24 233 -46 238 -48 6 -2 -8 -7 -30 -11 -22 -4 -113
-22 -203 -39 l-163 -31 42 -65 c23 -36 42 -66 43 -67 1 -1 78 -23 170 -47 93
-25 170 -47 173 -49 2 -3 -46 -17 -107 -33 -60 -16 -110 -32 -110 -36 0 -10
154 -188 263 -303 l84 -90 45 70 c114 176 153 289 146 422 -4 72 -10 93 -47
169 -35 70 -61 104 -130 173 -88 89 -241 198 -370 266 -39 21 -70 40 -67 42 8
8 153 -25 234 -53 369 -127 582 -371 582 -669 0 -150 -54 -298 -174 -479 l-81
-122 24 -60 c49 -121 38 -265 -33 -432 -44 -104 -61 -107 -50 -11 5 41 9 121
8 179 0 85 -5 114 -22 154 l-22 48 -158 -153 c-118 -115 -155 -156 -143 -160
9 -3 60 -14 114 -24 54 -9 97 -19 95 -20 -2 -2 -80 -18 -173 -35 -94 -17 -178
-33 -187 -36 -9 -3 -38 -33 -63 -66 -34 -45 -43 -63 -33 -69 7 -3 68 -19 136
-34 67 -16 122 -31 122 -35 0 -4 -66 -22 -147 -41 l-148 -35 -3 -71 c-2 -40 4
-111 12 -159 9 -48 14 -90 11 -92 -7 -8 -65 118 -97 211 -26 76 -31 108 -31
182 0 167 46 249 283 505 85 91 178 194 207 230 l54 65 -63 55 c-295 257 -484
483 -602 717 -175 349 -70 682 280 891 48 29 91 52 95 52 4 0 17 -20 29 -46z
m-1849 -380 c62 -31 98 -106 85 -176 -26 -139 -199 -186 -289 -79 -119 141 39
338 204 255z m4147 -10 c34 -25 72 -98 72 -140 0 -51 -40 -115 -90 -141 -54
-29 -94 -29 -150 0 -61 31 -83 65 -88 134 -3 49 0 64 20 93 13 19 39 45 58 58
29 20 44 23 93 20 36 -3 67 -12 85 -24z m-3665 -274 c69 -55 26 -170 -63 -170
-61 0 -107 56 -96 116 9 43 48 74 96 74 22 0 48 -8 63 -20z m3138 -9 c21 -22
29 -39 29 -66 0 -27 -8 -44 -29 -66 -22 -21 -39 -29 -66 -29 -50 0 -95 44 -95
93 0 88 99 130 161 68z m-2461 -226 c131 -68 82 -268 -66 -268 -109 0 -180
119 -124 211 40 65 125 91 190 57z m1787 -2 c93 -44 98 -190 9 -248 -14 -9
-45 -17 -68 -17 -84 -2 -148 57 -148 137 0 110 106 176 207 128z m-2422 -282
c204 -49 367 -90 364 -90 -7 -1 -701 -167 -764 -183 -78 -20 -180 33 -211 109
-29 68 -9 170 42 214 44 39 78 49 139 45 33 -3 227 -45 430 -95z m3438 85 c80
-33 128 -130 106 -219 -25 -107 -133 -166 -241 -133 -44 14 -716 175 -736 177
-4 0 161 40 367 90 206 49 376 91 379 94 11 10 94 5 125 -9z m-2796 -296 c67
-40 88 -112 54 -182 -26 -54 -65 -78 -128 -78 -84 0 -143 59 -143 142 0 102
128 173 217 118z m1780 3 c96 -45 98 -199 4 -248 -96 -49 -211 16 -211 120 0
110 106 176 207 128z m-2460 -344 c46 -44 37 -126 -18 -154 -42 -22 -75 -18
-111 14 -27 24 -33 36 -33 69 0 88 98 130 162 71z m3102 20 c53 -19 79 -99 46
-145 -19 -28 -69 -48 -101 -40 -42 11 -74 50 -74 91 0 48 15 74 53 90 39 17
37 17 76 4z m-3579 -161 c48 -33 69 -66 76 -120 18 -130 -119 -226 -236 -166
-62 32 -90 77 -90 146 0 101 60 162 161 162 42 0 65 -6 89 -22z m4119 7 c70
-35 106 -124 81 -199 -15 -45 -77 -101 -123 -110 -73 -14 -150 24 -181 88 -36
77 -4 185 66 219 41 21 120 22 157 2z m-3101 -477 c-100 -161 -193 -313 -206
-338 -35 -63 -51 -80 -97 -101 -93 -43 -205 -5 -252 85 -8 16 -15 55 -15 88 0
68 32 128 84 156 16 10 170 103 342 209 171 106 314 192 318 193 4 0 -75 -132
-174 -292z m2087 84 c171 -105 323 -201 339 -213 82 -64 86 -197 7 -272 -81
-77 -206 -73 -270 9 -17 23 -303 483 -404 653 -26 42 -59 60 328 -177z m-785
-91 c14 -10 31 -36 39 -58 13 -36 12 -43 -5 -79 -27 -55 -81 -81 -134 -65 -72
21 -105 93 -73 159 33 68 112 88 173 43z m-809 -420 c21 -22 29 -39 29 -66 0
-27 -8 -44 -29 -66 -39 -38 -87 -39 -130 -3 -26 21 -31 33 -31 69 0 89 97 129
161 66z m1062 9 c34 -27 44 -78 23 -118 -57 -110 -220 -33 -172 81 8 19 22 40
33 46 30 17 88 13 116 -9z m-1253 -432 c78 -53 100 -137 58 -218 -26 -50 -89
-90 -143 -90 -41 0 -114 38 -139 72 -30 42 -34 127 -6 176 44 79 158 108 230
60z m1498 -4 c15 -11 38 -41 51 -67 32 -65 24 -123 -26 -178 -58 -64 -136 -75
-211 -29 -53 33 -74 75 -70 145 4 69 23 102 78 135 45 27 136 24 178 -6z"/>
<path d="M5055 7671 c-22 -10 -52 -31 -67 -47 -58 -63 -58 -58 -58 -609 l0
-505 190 0 190 0 2 183 3 182 368 3 367 2 0 140 0 140 -371 0 -371 0 4 91 c3
85 5 92 31 115 l28 24 340 0 339 0 0 150 0 150 -477 0 c-444 0 -481 -2 -518
-19z"/>
<path d="M6272 7238 l3 -453 29 -62 c32 -70 106 -146 177 -184 44 -24 45 -24
445 -27 387 -3 403 -2 457 18 79 30 158 104 199 188 l33 67 3 452 3 453 -195
0 -196 0 0 -355 c0 -387 -5 -438 -50 -489 l-28 -31 -200 -3 -199 -3 -31 26
c-57 48 -62 85 -62 492 l0 363 -195 0 -196 0 3 -452z"/>
<path d="M7949 7667 c-59 -31 -105 -100 -114 -171 -4 -30 -5 -128 -3 -218 4
-179 9 -197 70 -254 63 -60 53 -59 443 -62 235 -2 364 -7 372 -14 17 -13 17
-110 1 -126 -9 -9 -119 -12 -435 -12 l-423 0 0 -150 0 -150 510 0 c406 0 517
3 543 13 36 16 103 85 117 123 6 14 10 115 10 225 0 220 -5 243 -67 301 -59
56 -72 58 -447 58 -395 0 -376 -4 -376 85 0 43 4 56 19 65 13 6 168 10 435 10
l416 0 0 150 0 150 -513 0 -514 0 -44 -23z"/>
<path d="M9523 7676 c-103 -33 -185 -106 -232 -205 -26 -56 -26 -56 -29 -349
-4 -316 2 -361 52 -441 31 -48 103 -114 158 -143 43 -23 46 -23 444 -26 387
-3 403 -2 457 18 69 26 153 100 190 167 40 75 49 164 45 452 l-3 256 -32 67
c-39 82 -100 145 -179 184 l-59 29 -385 2 c-299 2 -394 -1 -427 -11z m614
-303 c58 -27 76 -81 81 -244 5 -163 -8 -237 -48 -282 l-28 -32 -200 -3 -200
-3 -35 31 c-49 43 -60 98 -55 285 4 174 17 217 78 247 51 26 355 26 407 1z"/>
<path d="M11079 7674 c-101 -31 -201 -127 -236 -229 -16 -43 -18 -90 -18 -355
l0 -305 33 -67 c41 -84 120 -158 199 -188 54 -20 70 -21 457 -18 400 3 401 3
445 27 67 35 147 117 178 180 28 55 28 60 31 274 l4 217 -331 0 -331 0 0 -125
0 -125 135 0 c153 0 151 1 116 -77 -32 -70 -52 -75 -276 -71 -190 3 -194 3
-220 28 -44 42 -58 112 -53 284 3 125 7 158 23 191 37 74 43 75 433 75 l342 0
0 150 0 150 -442 -1 c-354 0 -452 -3 -489 -15z"/>
<path d="M12529 7680 c-42 -12 -89 -52 -115 -96 l-24 -41 0 -516 0 -517 560 0
560 0 0 150 0 150 -370 0 -370 0 0 85 0 85 370 0 370 0 0 120 0 120 -370 0
-370 0 0 50 c0 60 15 94 47 109 16 7 135 11 358 11 l335 0 0 150 0 150 -477
-1 c-263 0 -490 -4 -504 -9z"/>
<path d="M13983 7676 c-96 -31 -197 -127 -232 -221 -20 -53 -21 -75 -21 -500
l0 -445 190 0 190 0 0 348 c0 393 6 443 59 496 l31 31 188 3 c182 3 188 3 222
-20 71 -48 80 -109 80 -530 l0 -328 190 0 191 0 -3 458 -3 457 -32 60 c-36 71
-99 132 -175 172 l-53 28 -390 2 c-302 2 -399 -1 -432 -11z"/>
</g>
</svg>
